<svg width="56" height="47" viewBox="0 0 56 47" fill="none" xmlns="http://www.w3.org/2000/svg">
<circle cx="10" cy="10" r="10" fill="url(#paint0_radial_8_52)"/>
<path d="M37.966 22.2886C37.7548 22.2886 37.5329 22.2062 37.3639 22.0515C37.0364 21.7319 37.0364 21.2062 37.3639 20.8866L41.9169 16.4433L14.5566 8.42267L17.5356 18.1237C17.6729 18.5567 17.4194 19.0206 16.9652 19.1546C16.5215 19.2887 16.0461 19.0412 15.9088 18.5979L12.4967 7.43298C12.4121 7.14432 12.4861 6.82473 12.7079 6.60824C12.9298 6.39174 13.2467 6.30927 13.553 6.40205L43.7656 15.2577C44.0508 15.3402 44.2726 15.567 44.3466 15.8454C44.4205 16.1237 44.336 16.4227 44.1248 16.6289L38.5787 22.0412C38.3992 22.2062 38.1879 22.2886 37.966 22.2886ZM41.0929 40.2268L47.1354 34.3299C47.4629 34.0103 47.4629 33.4845 47.1354 33.1649L36.5611 22.835C36.2336 22.5155 35.6948 22.5155 35.3673 22.835C35.0399 23.1546 35.0399 23.6804 35.3673 24L45.3502 33.7423L40.5014 38.4742L30.5185 28.7319C30.1911 28.4124 29.6523 28.4124 29.3248 28.7319L22.7753 35.1237L18.4969 21.2165C18.3596 20.7835 17.8948 20.5361 17.4405 20.6598C16.9968 20.7938 16.7433 21.2474 16.8701 21.6907L21.5499 36.9175C21.6344 37.1959 21.8668 37.4124 22.152 37.4845C22.4372 37.5567 22.7436 37.4742 22.9548 37.268L29.9164 30.4742L39.8992 40.2165C40.0577 40.3711 40.269 40.4536 40.5014 40.4536C40.7338 40.4536 40.9345 40.3814 41.0929 40.2268Z" fill="black"/>
<path d="M20.7998 18.3712C20.7998 18.8248 20.4195 19.1959 19.9547 19.1959H15.4122C14.9474 19.1959 14.5671 18.8248 14.5671 18.3712C14.5671 17.9176 14.9474 17.5464 15.4122 17.5464H19.9547C20.4195 17.5464 20.7998 17.9072 20.7998 18.3712ZM18.7187 20.6392H10.9226C10.4578 20.6392 10.0775 21.0103 10.0775 21.4639C10.0775 21.9176 10.4578 22.2887 10.9226 22.2887H18.7187C19.1835 22.2887 19.5638 21.9176 19.5638 21.4639C19.5638 21 19.1835 20.6392 18.7187 20.6392ZM54.4984 23.0722H52.8293V21.4433C52.8293 20.9897 52.449 20.6186 51.9842 20.6186C51.5194 20.6186 51.1391 20.9897 51.1391 21.4433V23.0722H49.47C49.0052 23.0722 48.6249 23.4433 48.6249 23.8969C48.6249 24.3505 49.0052 24.7217 49.47 24.7217H51.1391V26.3505C51.1391 26.8041 51.5194 27.1753 51.9842 27.1753C52.449 27.1753 52.8293 26.8041 52.8293 26.3505V24.7217H54.4984C54.9632 24.7217 55.3435 24.3505 55.3435 23.8969C55.3435 23.4433 54.9632 23.0722 54.4984 23.0722ZM12.8875 37.2268C12.4227 37.2268 12.0424 37.598 12.0424 38.0516C12.0424 39.2268 11.0599 40.1959 9.84511 40.1959C9.3803 40.1959 9 40.567 9 41.0206C9 41.4743 9.3803 41.8454 9.84511 41.8454C11.9896 41.8454 13.7326 40.1444 13.7326 38.0516C13.7326 37.598 13.3523 37.2268 12.8875 37.2268ZM18.1694 40.1959C16.9651 40.1959 15.9721 39.2371 15.9721 38.0516C15.9721 37.598 15.5918 37.2268 15.127 37.2268C14.6622 37.2268 14.2819 37.598 14.2819 38.0516C14.2819 40.1444 16.0249 41.8454 18.1694 41.8454C18.6342 41.8454 19.0145 41.4743 19.0145 41.0206C19.0145 40.567 18.6342 40.1959 18.1694 40.1959ZM18.1694 42.3815C16.0249 42.3815 14.2819 44.0825 14.2819 46.1753C14.2819 46.6289 14.6622 47 15.127 47C15.5918 47 15.9721 46.6289 15.9721 46.1753C15.9721 45 16.9546 44.031 18.1694 44.031C18.6342 44.031 19.0145 43.6598 19.0145 43.2062C19.0145 42.7526 18.6342 42.3815 18.1694 42.3815ZM9.84511 42.3815C9.3803 42.3815 9 42.7526 9 43.2062C9 43.6598 9.3803 44.031 9.84511 44.031C11.0494 44.031 12.0424 44.9897 12.0424 46.1753C12.0424 46.6289 12.4227 47 12.8875 47C13.3523 47 13.7326 46.6289 13.7326 46.1753C13.7326 44.0825 11.9896 42.3815 9.84511 42.3815ZM49.8609 44.6804C49.2376 44.6804 48.72 45.1753 48.72 45.7835C48.72 46.3918 49.2271 46.8969 49.8609 46.8969C50.4841 46.8969 51.0018 46.4021 51.0018 45.7835C50.9912 45.1753 50.4841 44.6804 49.8609 44.6804Z" fill="black"/>
<path d="M38.9379 2V5.62887H36.6561V2H38.9379ZM51.0969 2V9.96907H53.4737V2H51.0969ZM46.3115 2V9.96907H48.5933V2H46.3115Z" fill="#2FA4FF"/>
<path d="M43.8078 2V5.62887H41.4415V2H43.8078Z" fill="#87DBF7"/>
<defs>
<radialGradient id="paint0_radial_8_52" cx="0" cy="0" r="1" gradientUnits="userSpaceOnUse" gradientTransform="translate(20 -5.5) rotate(129.44) scale(40.1404)">
<stop stop-color="#FFF0EE"/>
<stop offset="1" stop-color="#2FA4FF"/>
</radialGradient>
</defs>
</svg>
