<svg width="78" height="65" viewBox="0 0 78 65" fill="none" xmlns="http://www.w3.org/2000/svg">
<rect x="12.3069" y="2.04453" width="63.7523" height="49.4321" stroke="#2FA4FF" stroke-dasharray="2 4"/>
<rect x="10.3049" width="3.11309" height="3.11309" fill="#87DBF7"/>
<rect x="42.9377" width="3.11309" height="3.11309" fill="#87DBF7"/>
<rect x="10.3049" y="25.8267" width="3.11309" height="3.11309" fill="#87DBF7"/>
<rect x="74.887" width="3.11309" height="3.11309" fill="#87DBF7"/>
<rect x="74.887" y="25.8267" width="3.11309" height="3.11309" fill="#87DBF7"/>
<rect x="74.887" y="50.186" width="3.11309" height="3.11309" fill="#87DBF7"/>
<rect x="42.9377" y="50.186" width="3.11309" height="3.11309" fill="#87DBF7"/>
<rect x="12.1729" y="45.8277" width="3.11309" height="3.11309" fill="#979797"/>
<path fill-rule="evenodd" clip-rule="evenodd" d="M16.6746 3.41241C15.0177 3.41241 13.6746 4.75556 13.6746 6.41242V11.627H74.6912V6.41241C74.6912 4.75556 73.348 3.41241 71.6912 3.41241H16.6746ZM74.6912 12.627H13.6746V30.8015L37.9339 50.7314H71.6912C73.348 50.7314 74.6912 49.3883 74.6912 47.7314V12.627ZM25.5316 7.8737C25.5316 8.72189 24.8486 9.40949 24.0062 9.40949C23.1637 9.40949 22.4807 8.72189 22.4807 7.8737C22.4807 7.0255 23.1637 6.33791 24.0062 6.33791C24.8486 6.33791 25.5316 7.0255 25.5316 7.8737ZM19.4319 7.87442C19.4319 8.72261 18.7489 9.41021 17.9064 9.41021C17.064 9.41021 16.381 8.72261 16.381 7.87442C16.381 7.02622 17.064 6.33862 17.9064 6.33862C18.7489 6.33862 19.4319 7.02622 19.4319 7.87442ZM30.1083 9.40949C30.9508 9.40949 31.6337 8.72189 31.6337 7.8737C31.6337 7.0255 30.9508 6.33791 30.1083 6.33791C29.2658 6.33791 28.5829 7.0255 28.5829 7.8737C28.5829 8.72189 29.2658 9.40949 30.1083 9.40949Z" fill="url(#paint0_linear_8_72)"/>
<path d="M11.8371 32.3218L11.0339 31.6526L11.0172 32.6979L10.5515 61.7683L10.53 63.113L11.4247 62.109L20.0951 52.3803L34.5322 52.3803L35.9135 52.3803L34.8523 51.4962L11.8371 32.3218Z" fill="white" stroke="black"/>
<defs>
<linearGradient id="paint0_linear_8_72" x1="46.1278" y1="-5.17911" x2="21.0242" y2="29.9489" gradientUnits="userSpaceOnUse">
<stop stop-color="#80D4F0"/>
<stop offset="1" stop-color="#2FA4FF"/>
</linearGradient>
</defs>
</svg>
