<svg width="62" height="60" viewBox="0 0 62 60" fill="none" xmlns="http://www.w3.org/2000/svg">
<circle cx="10" cy="10" r="10" fill="#87DBF6"/>
<path d="M35.2879 20.6666C34.6691 20.6666 34.0756 20.9125 33.638 21.35C33.2004 21.7876 32.9546 22.3811 32.9546 23C32.9546 23.6188 33.2004 24.2123 33.638 24.6499C34.0756 25.0875 34.6691 25.3333 35.2879 25.3333H44.6213C45.2401 25.3333 45.8336 25.0875 46.2712 24.6499C46.7088 24.2123 46.9546 23.6188 46.9546 23C46.9546 22.3811 46.7088 21.7876 46.2712 21.35C45.8336 20.9125 45.2401 20.6666 44.6213 20.6666H35.2879Z" fill="#87DBF7"/>
<path d="M35.2879 41.6666C34.6691 41.6666 34.0756 41.9125 33.638 42.35C33.2004 42.7876 32.9546 43.3811 32.9546 44C32.9546 44.6188 33.2004 45.2123 33.638 45.6499C34.0756 46.0875 34.6691 46.3333 35.2879 46.3333H44.6213C45.2401 46.3333 45.8336 46.0875 46.2712 45.6499C46.7088 45.2123 46.9546 44.6188 46.9546 44C46.9546 43.3811 46.7088 42.7876 46.2712 42.35C45.8336 41.9125 45.2401 41.6666 44.6213 41.6666H35.2879Z" fill="#87DBF7"/>
<path d="M35.2879 13.6666C34.6691 13.6666 34.0756 13.9125 33.638 14.35C33.2004 14.7876 32.9546 15.3811 32.9546 16C32.9546 16.6188 33.2004 17.2123 33.638 17.6499C34.0756 18.0875 34.6691 18.3333 35.2879 18.3333H53.9546C54.5734 18.3333 55.1669 18.0875 55.6045 17.6499C56.0421 17.2123 56.2879 16.6188 56.2879 16C56.2879 15.3811 56.0421 14.7876 55.6045 14.35C55.1669 13.9125 54.5734 13.6666 53.9546 13.6666H35.2879Z" fill="#00BDF9"/>
<path d="M35.2879 34.6666C34.6691 34.6666 34.0756 34.9125 33.638 35.35C33.2004 35.7876 32.9546 36.3811 32.9546 37C32.9546 37.6188 33.2004 38.2123 33.638 38.6499C34.0756 39.0875 34.6691 39.3333 35.2879 39.3333H53.9546C54.5734 39.3333 55.1669 39.0875 55.6045 38.6499C56.0421 38.2123 56.2879 37.6188 56.2879 37C56.2879 36.3811 56.0421 35.7876 55.6045 35.35C55.1669 34.9125 54.5734 34.6666 53.9546 34.6666H35.2879Z" fill="#00BDF9"/>
<path d="M14.0452 11.3379C13.4264 11.3379 12.8329 11.5837 12.3953 12.0213C11.9577 12.4589 11.7119 13.0524 11.7119 13.6712V25.3379C11.7119 25.9567 11.9577 26.5502 12.3953 26.9878C12.8329 27.4254 13.4264 27.6712 14.0452 27.6712H25.7119C26.3308 27.6712 26.9242 27.4254 27.3618 26.9878C27.7994 26.5502 28.0452 25.9567 28.0452 25.3379V13.6712C28.0452 13.0524 27.7994 12.4589 27.3618 12.0213C26.9242 11.5837 26.3308 11.3379 25.7119 11.3379H14.0452Z" fill="#2FA4FF"/>
<path d="M14.0452 32.3285C13.4264 32.3285 12.8329 32.5744 12.3953 33.0119C11.9577 33.4495 11.7119 34.043 11.7119 34.6619V46.3285C11.7119 46.9474 11.9577 47.5409 12.3953 47.9784C12.8329 48.416 13.4264 48.6619 14.0452 48.6619H25.7119C26.3308 48.6619 26.9242 48.416 27.3618 47.9784C27.7994 47.5409 28.0452 46.9474 28.0452 46.3285V34.6619C28.0452 34.043 27.7994 33.4495 27.3618 33.0119C26.9242 32.5744 26.3308 32.3285 25.7119 32.3285H14.0452Z" fill="#2FA4FF"/>
<g filter="url(#filter0_b_8_61)">
<rect x="4.5" y="2.5" width="57" height="57" rx="16.5" stroke="url(#paint0_linear_8_61)" stroke-opacity="0.9"/>
</g>
<defs>
<filter id="filter0_b_8_61" x="-16" y="-18" width="98" height="98" filterUnits="userSpaceOnUse" color-interpolation-filters="sRGB">
<feFlood flood-opacity="0" result="BackgroundImageFix"/>
<feGaussianBlur in="BackgroundImageFix" stdDeviation="10"/>
<feComposite in2="SourceAlpha" operator="in" result="effect1_backgroundBlur_8_61"/>
<feBlend mode="normal" in="SourceGraphic" in2="effect1_backgroundBlur_8_61" result="shape"/>
</filter>
<linearGradient id="paint0_linear_8_61" x1="5" y1="3" x2="79.9" y2="89.8" gradientUnits="userSpaceOnUse">
<stop stop-opacity="0"/>
<stop offset="1" stop-color="white"/>
</linearGradient>
</defs>
</svg>
